<svg width="17" height="13" viewBox="0 0 17 13" xmlns="http://www.w3.org/2000/svg">
<path d="M14,0.1 C15,0.2 16.3,0.1 17,0.9 C17.8,1.7 17.9,3 17.9,4 C18,5.2 18,6.9 18,8 C17.9,9.1 18,10.4 17.5,11.4 C17,12.5 16.1,12.9 15,13 C13.8,13.1 6.4,13.1 4,13 C2.9,12.9 1.6,12.9 0.8,12 C0.1,11.2 0.1,10 -2.22044605e-16,9 C0,7.8 0,6.1 0,4.9 C0,3.8 0,2.5 0.5,1.5 C1,0.5 2,0.3 3.1,0.2 C4.3,0.1 11.6,-2.22044605e-16 14,0.1 Z M4,3.5 L4,9.5 L9.5,6.5 L4,3.5 Z M12,7.4 C12.5522847,7.4 13,6.95228475 13,6.4 C13,5.84771525 12.5522847,5.4 12,5.4 C11.4477153,5.4 11,5.84771525 11,6.4 C11,6.95228475 11.4477153,7.4 12,7.4 Z" id="Shape"></path>
</svg>